<svg width="286" height="64" viewBox="0 0 286 64" fill="none" xmlns="http://www.w3.org/2000/svg">
<path d="M99.0382 1.71429C102.611 1.71429 105.191 3.61905 105.191 7.04762C105.191 8.95238 104.397 11.4286 103.008 14.4762L87.7252 50.6667L70.458 13.1429C69.0687 10.2857 68.4733 8.19048 68.4733 6.09524C68.4733 3.80952 70.458 1.71429 74.8244 1.71429V0L49.4198 0V1.71429C54.5802 1.71429 56.1679 3.42857 59.145 10.0952L83.5572 64H84.9466L107.771 10.6667C110.55 4.38095 114.122 1.52381 116.901 1.52381V0L99.2366 0V1.71429H99.0382ZM0 0L0 1.71429C7.14504 1.71429 8.73282 3.42857 8.73282 9.14286L8.73282 51.0476C8.73282 60 7.34351 60.9524 0 60.9524L0 62.6667L50.0153 62.6667L55.5725 45.7143L54.1832 45.3333C48.8244 58.0952 45.0534 60 33.7405 60H26.7939C18.0611 60 17.6641 59.8095 17.6641 49.5238L17.6641 11.4286C17.6641 3.61905 19.2519 1.90476 27.9847 1.90476V0L0 0ZM207.008 1.71429V0L190.733 0L166.916 49.5238L142.107 0L125.435 0V1.71429C132.382 1.71429 133.969 3.80952 133.969 9.90476V50.8571C133.969 59.8095 132.183 60.7619 125.435 60.7619V62.4762H145.679V60.7619C138.733 60.7619 137.145 59.8095 137.145 50.8571V9.90476L162.351 62.4762H163.939L188.947 9.90476V50.8571C188.947 59.8095 187.557 60.7619 179.817 60.7619V62.4762L207.008 62.4762V60.7619C199.466 60.7619 198.275 59.6191 198.275 50.8571V8.95238C198.275 3.42857 200.061 1.71429 207.008 1.71429ZM233.603 11.619C233.603 2.85714 235.191 1.71429 242.534 1.71429V0L215.939 0V1.71429C223.481 1.71429 224.672 2.85714 224.672 11.619V50.8571C224.672 59.6191 223.282 60.7619 215.939 60.7619V62.4762H242.534V60.7619C234.992 60.7619 233.802 59.6191 233.802 50.8571V34.2857C233.802 32.5714 234.595 32 236.58 32L265.359 32C267.542 32 268.137 32.7619 268.137 34.8571V50.8571C268.137 59.6191 266.748 60.7619 259.405 60.7619V62.4762H286V60.7619C278.458 60.7619 277.267 59.6191 277.267 50.8571V11.619C277.267 2.85714 278.656 1.71429 286 1.71429V0L259.405 0V1.71429C266.947 1.71429 268.137 2.85714 268.137 11.619V26.2857C268.137 28.5714 267.542 29.1429 265.359 29.1429L236.382 29.1429C234.397 29.1429 233.603 28.5714 233.603 27.0476V11.619Z" fill="white"/>
</svg>
